<?xml version="1.0" encoding="UTF-8"?><svg id="Layer_2" xmlns="http://www.w3.org/2000/svg" viewBox="0 0 979.65 338.35"><defs><style>.cls-1{fill:#a19c96;}.cls-2{fill:#b7b2ac;}.cls-3{fill:#c17c07;}.cls-4{fill:#d20809;}.cls-5{fill:#1d1d1b;}.cls-6{fill:#893803;}.cls-7{fill:#575756;}.cls-8{fill:#3c3935;}</style></defs><g id="Layer_1-2"><g><path class="cls-4" d="M644.75,195.09c7.67-18.92,14.12-39.01,19.89-59.31-5.05,9.02-9.37,19.22-15.79,24.67,0-.47,.02-.94,.02-1.41,0-17.95-2.98-35.21-8.46-51.31l1.16,1.44c-2.25-5.95-4.84-11.84-7.74-17.69-2.81-5.97-5.97-11.74-9.47-17.28-15.39-25.67-35.93-50.37-57.69-74.01,5.3,9.46,12.13,18.91,12.94,27.57C554.06,10.25,523.14,0,489.83,0c-2.62,0-5.23,.07-7.83,.19h0s-.07,0-.11,0c-.51,.02-1.01,.06-1.52,.09-.93,.05-1.86,.11-2.79,.18h0c-39.68,2.89-81.62,18.7-122.33,37.43,12.45-2.5,25.54-7,34.33-2.33h.03c-35.36,28.72-58.14,72.32-58.81,121.27-2.75,24.57-2.91,50.52-2.01,76.47,2.17-10.77,3.14-22.57,8.35-29.63,8.73,29.92,26.01,56.18,49.02,75.98,21.92,21.69,49.01,40.91,77.09,58.7-8.82-9.04-19.64-17.54-20.61-27.39,14.91,4.63,30.76,7.13,47.19,7.13,17.95,0,35.21-2.98,51.3-8.46,29.33-7.51,59.19-20.4,88.37-34.82-12.37,2.84-25.32,7.7-34.24,3.29,24.27-21.51,41.91-50.33,49.49-83.01Z"/><g><g><path d="M720.21,173.89l243.7-30.24c1.94-.24,3.79-1.03,5.33-2.29,13.44-10.93,13.05-21.66,1.71-32.24-2.58-2.4-5.99-3.51-9.38-3.18l-242.68,24.06,1.32,43.9Z"/><path d="M719.98,174.17l-1.33-44.41,.23-.02,242.67-24.06c3.5-.35,6.99,.83,9.58,3.24,5.83,5.44,8.7,10.9,8.52,16.22-.19,5.5-3.63,11.02-10.24,16.39-1.59,1.29-3.48,2.1-5.46,2.35l-243.97,30.28Zm-.82-43.96l1.3,43.4,243.43-30.21c1.89-.23,3.69-1.01,5.21-2.24,6.49-5.28,9.88-10.67,10.06-16.02,.18-5.18-2.64-10.51-8.36-15.84-2.48-2.31-5.83-3.45-9.19-3.11l-242.44,24.03Z"/></g><g><path class="cls-2" d="M682.56,172.21l1.76-33.36C458.81,159,230,145.79,1.82,103.67c0,0,3.4,20.26,35.91,32.29,.81,.3,1.64,.53,2.49,.68,205.67,35.52,418.71,50.78,642.35,35.57Z"/><path d="M509.45,179.53c-51.56,0-103.29-1.53-154.89-4.6-102.54-6.09-208.39-18.48-314.6-36.83-.91-.16-1.83-.41-2.75-.75C4.27,125.16,.5,104.78,.35,103.91l-.35-2.1,2.09,.39c160.01,29.54,318.5,44.37,473.33,44.37,70.42,0,140.05-3.06,208.77-9.2l1.71-.15-1.92,36.39-1.32,.09c-57.21,3.89-115.11,5.84-173.22,5.84ZM3.92,105.57c1.94,5.39,9.28,19.73,34.32,29,.74,.28,1.49,.48,2.22,.61,220.96,38.16,430.54,49.83,640.68,35.64l1.6-30.33c-110.54,9.79-224.5,11.68-338.75,5.61-111.5-5.92-225.91-19.56-340.07-40.53Z"/></g><path class="cls-1" d="M682.53,164.65l-16.55,2.35c-2.04,.36-4.12,.36-6.17,.02l-3.01-.51c-2.5-.42-5.04-.42-7.53,0l-7.23,1.24c-1.59,.27-3.22,.34-4.83,.2l-7.73-.68c-1.18-.1-2.36-.05-3.52,.17l-9.73,1.81c-1.02,.19-2.06,.23-3.09,.12l-11.31-1.2c-1.24-.13-2.49-.07-3.71,.19l-7.57,1.61c-2.07,.44-4.19,.52-6.29,.23l-5.46-.75c-2.98-.41-6.01-.16-8.88,.72l-.29,.09c-3.74,1.15-7.7,1.32-11.53,.51l-.41-.09c-3.36-.72-6.81-.78-10.18-.18l-4.19,.75c-2.39,.42-4.83,.42-7.22-.03l-3.31-.61c-3.64-.67-7.35-.58-10.94,.29l-5.66,1.36c-2.71,.65-5.53,.69-8.26,.11l-6.41-1.35c-2.61-.55-5.28-.62-7.9-.22l-6.5,1c-2.41,.37-4.87,.23-7.25-.41l-3.79-1.02c-2.85-.77-5.81-.84-8.68-.22l-4.57,1c-3.26,.71-6.63,.65-9.88-.19l-2.91-.75c-2.95-.76-6-.89-8.99-.38l-6.16,1.05c-3.23,.55-6.54,.43-9.74-.35l-6.66-1.63c-2.7-.66-5.49-.77-8.23-.32l-7.6,1.25c-3.42,.56-6.91,.42-10.29-.41l-6.33-1.55c-2.33-.57-4.74-.57-7.06,0l-4.31,1.06c-2.68,.66-5.47,.58-8.13-.22l-5.9-1.78c-2.85-.86-5.82-1.09-8.74-.69l-7,.96c-1.72,.24-3.47,.12-5.16-.33l-6.77-1.81c-2.6-.7-5.28-.99-7.96-.86l-10.92,.51c-1.15,.05-2.3-.04-3.42-.28l-11.12-2.34c-1.92-.4-3.89-.42-5.8-.05l-5.31,1.04c-2.36,.46-4.79,.31-7.09-.43l-5.1-1.65c-2.05-.66-4.19-.88-6.31-.65l-6.85,.76c-1.87,.21-3.77-.02-5.56-.68l-4.73-1.73c-3.27-1.19-6.78-1.53-10.2-.97l-6.11,1c-2.72,.45-5.5,.25-8.15-.57l-6.96-2.15c-2.49-.77-5.07-1.08-7.65-.92l-7.57,.46c-2.47,.15-4.95-.25-7.26-1.16l-4.25-1.68c-2.42-.96-5.04-1.24-7.59-.81l-3.53,.59c-3.65,.61-7.41,.14-10.83-1.36l-2.03-.89c-2.2-.96-4.59-1.37-6.96-1.18l-7.65,.61c-3.16,.25-6.34-.2-9.33-1.32l-5.57-2.1c-1.95-.73-4-1.11-6.07-1.12l-14.54-.07c-1.92,0-3.82-.38-5.62-1.09l-6.33-2.5c-2.15-.85-4.47-1.2-6.76-1.01l-8.14,.66c-2.52,.2-5.05-.23-7.37-1.26l-3.67-1.64c-1.76-.78-3.66-1.19-5.57-1.2l-5.23-.03c-2.6-.01-5.18-.46-7.64-1.33l-6.26-2.2c-.94-.33-1.91-.51-2.89-.54-5.98-.16-29.46-1.65-41.21-15.39-1.88-2.2-1.52-5.61,.81-7.26,.75-.53,1.63-.99,2.64-1.38l-14.54-3.3c10.41,20.84,20.99,23.9,35.96,30.26,.13,.06,.28,.09,.42,.12,212.43,37.82,428.14,49.86,645.53,35.87l-2.14-7.14Z"/><path class="cls-8" d="M680.87,153.58l3.45-12.7c-222.46,19.92-445.78,7.16-663.11-31.67,3.51,4.7,9.6,8.72,17.03,12.39,.97,.48,2,.81,3.06,.99,212.35,36.62,426.36,46.47,639.58,30.99Z"/><g><ellipse cx="709.85" cy="152.68" rx="12.18" ry="43.74" transform="translate(-.64 3.02) rotate(-.24)"/><path d="M710.02,196.67h-.02c-3.37-.02-6.53-4.65-8.89-13.04-2.33-8.29-3.64-19.31-3.68-31.02h0c-.07-19.63,3.56-37.02,8.83-42.28,1.1-1.1,2.25-1.65,3.42-1.65h.02c3.37,.02,6.53,4.65,8.89,13.04,2.33,8.29,3.64,19.31,3.69,31.02,.07,19.63-3.56,37.02-8.83,42.28-1.1,1.1-2.25,1.65-3.42,1.65Zm-.34-87.49c-1.04,0-2.07,.51-3.07,1.51-5.18,5.17-8.75,22.41-8.68,41.92h0c.08,23.99,5.51,43.53,12.08,43.56h.02c1.04,0,2.07-.51,3.07-1.51,5.18-5.17,8.75-22.41,8.68-41.93-.09-23.99-5.51-43.53-12.08-43.56h-.02Z"/></g><g><path class="cls-3" d="M683.66,173.54l20.01-.89c.54,1.78,1.54,3.17,2.9,4.27,.68,.55,1.61,.01,1.63-.92,.29-15.85-.27-30.91-2.09-44.82-.13-1-1.1-1.6-1.88-1.13-1.48,.89-2.37,2.22-2.45,4.16l.13,2.77-19.94,.89c-5.51,.25-3.83,35.94,1.69,35.69Z"/><path d="M707.17,178.13c-.44,0-.87-.15-1.23-.44-1.36-1.1-2.36-2.45-2.97-4.01l-19.27,.86s-.07,0-.1,0c-4.84,0-5.78-15.68-5.92-18.85-.19-4.36-.46-18.62,4.25-18.83l18.95-.84-.09-1.82v-.04c.08-2.18,1.07-3.85,2.93-4.97,.62-.37,1.36-.41,2.02-.09,.74,.36,1.25,1.08,1.36,1.94,1.73,13.23,2.41,27.94,2.1,44.97-.02,.85-.48,1.59-1.21,1.93-.26,.12-.53,.18-.81,.18Zm-2.77-6.5l.22,.74c.45,1.5,1.29,2.73,2.54,3.76,.02-.03,.04-.07,.04-.15,.31-16.93-.37-31.55-2.08-44.68-.03-.23-.16-.36-.25-.41-.07-.03-.1-.02-.13,0-1.27,.77-1.9,1.82-1.96,3.3l.17,3.72-20.94,.93c-1.26,.06-2.83,6.06-2.36,16.76,.51,11.38,2.81,17.02,3.95,16.95l20.79-.93Z"/></g><path class="cls-5" d="M715.42,192.7c-.16,0,7.65-51.93-6.81-79.49,.11-4.9,4.12-4.26,7-.29,10.41,29.02,6.04,71.29-.19,79.78Z"/><path class="cls-6" d="M684.52,155.41c-.34-2.77-.66-5.47-.72-7.62-.05-1.86,1.3-3.41,3.04-3.49l16.14-.74c1.07-.05,1.88-1.03,1.8-2.17l-.47-6.22-.72,4.21c-.13,.79-.77,1.38-1.53,1.41l-17.73,.72c-.8,.03-1.52,.55-1.79,1.35-1.26,3.71-.36,7.95,1.98,12.54Z"/><polygon class="cls-7" points="737.4 162.5 730.37 149.89 735.72 136.82 744.17 148.79 737.4 162.5"/><polygon class="cls-7" points="757.3 162.6 750.27 149.99 755.62 136.92 764.07 148.89 757.3 162.6"/><polygon class="cls-7" points="775.89 160.82 768.87 148.2 774.22 135.13 782.66 147.11 775.89 160.82"/><polygon class="cls-7" points="795.62 158.47 788.59 145.86 793.95 132.79 802.39 144.76 795.62 158.47"/><polygon class="cls-7" points="815.02 155.19 807.99 142.58 813.35 129.51 821.79 141.48 815.02 155.19"/><polygon class="cls-7" points="835.4 153.96 828.38 141.35 833.73 128.28 842.17 140.25 835.4 153.96"/><polygon class="cls-7" points="855.77 150.26 848.75 137.65 854.1 124.58 862.54 136.55 855.77 150.26"/><polygon class="cls-7" points="875.66 147.25 869.31 135.85 874.14 124.03 881.77 134.86 875.66 147.25"/><polygon class="cls-7" points="894.26 146.13 887.63 134.24 892.68 121.92 900.64 133.21 894.26 146.13"/><polygon class="cls-7" points="914.63 142.86 908.35 131.58 913.13 119.9 920.68 130.6 914.63 142.86"/><polygon class="cls-7" points="934.03 141.09 927.82 129.94 932.55 118.38 940.02 128.97 934.03 141.09"/><polygon class="cls-7" points="952.29 138.43 946.37 127.79 950.88 116.77 958 126.87 952.29 138.43"/><path class="cls-3" d="M965.85,143.62c.22-12.32-1.05-24.93-3.46-37.75,5.7-.4,13.42,6.27,16.54,14.89,.33,.9,.53,1.85,.55,2.82,.19,8.07-5.43,14.57-13.63,20.04Z"/><path class="cls-6" d="M967.18,138.51c-.24-11.02-.68-21.35-1.99-28.8,1.13-.03,6,3.21,10,5.69-4-4.23-7.99-8.27-11.9-8.94,1.7,9.34,2.91,20.3,3.89,32.05Z"/><polygon class="cls-8" points="737.11 160.94 733.66 149.73 735.73 138.63 730.97 149.96 737.11 160.94"/><polygon class="cls-8" points="757.21 160.92 753.76 149.7 755.83 138.6 751.07 149.93 757.21 160.92"/><polygon class="cls-8" points="775.8 159.13 772.35 147.92 774.43 136.82 769.66 148.15 775.8 159.13"/><polygon class="cls-8" points="795.94 156.79 792.49 145.58 794.56 134.48 789.8 145.81 795.94 156.79"/><polygon class="cls-8" points="815.42 153.3 811.97 142.09 814.04 130.99 809.28 142.32 815.42 153.3"/><polygon class="cls-8" points="836 152.28 832.56 141.07 834.63 129.97 829.86 141.3 836 152.28"/><polygon class="cls-8" points="855.72 148.38 852.27 137.17 854.34 126.07 849.58 137.4 855.72 148.38"/><polygon class="cls-8" points="875.58 145.5 872.53 135.59 874.36 125.78 870.15 135.8 875.58 145.5"/><polygon class="cls-8" points="894.76 143.8 891.75 133.98 893.56 124.26 889.39 134.18 894.76 143.8"/><polygon class="cls-8" points="914 139.71 911.42 131.33 912.97 123.04 909.41 131.51 914 139.71"/><polygon class="cls-8" points="933.49 138.75 930.7 129.69 932.37 120.72 928.53 129.87 933.49 138.75"/><polygon class="cls-8" points="952.07 136.66 949.27 127.56 950.95 118.54 947.09 127.74 952.07 136.66"/></g></g></g></svg>